<svg width="188" height="188" viewBox="0 0 188 188" fill="none" xmlns="http://www.w3.org/2000/svg">
<path d="M57.6386 8.61565C59.1605 0.858596 68.6565 -2.14904 74.3667 3.31737L116.637 43.7829C118.018 45.1054 119.75 46.004 121.627 46.3723L179.049 57.6386C186.806 59.1605 189.814 68.6564 184.347 74.3667L143.882 116.637C142.559 118.018 141.661 119.75 141.292 121.627L130.026 179.049C128.504 186.806 119.008 189.814 113.298 184.347L71.0277 143.882C69.6462 142.559 67.9145 141.661 66.0378 141.292L8.61565 130.026C0.858599 128.504 -2.14904 119.008 3.31737 113.298L43.7829 71.0277C45.1054 69.6462 46.004 67.9145 46.3723 66.0378L57.6386 8.61565Z" fill="#FFEDB1"/>
</svg>
