<svg width="179" height="174" viewBox="0 0 179 174" fill="none" xmlns="http://www.w3.org/2000/svg">
<path d="M122.984 1.28268C135.148 -2.56666 147.758 5.80448 148.933 18.5091L152.008 51.7656C152.335 55.294 153.592 58.6724 155.653 61.555L175.076 88.7249C182.496 99.1043 178.431 113.684 166.711 118.727L136.033 131.929C132.778 133.329 129.954 135.57 127.849 138.42L108.011 165.289C100.432 175.553 85.3103 176.192 76.8922 166.605L54.8565 141.507C52.5186 138.844 49.5153 136.851 46.1537 135.73L14.4703 125.165C2.36653 121.129 -2.91464 106.945 3.60249 95.9763L20.6621 67.2636C22.4721 64.2173 23.4402 60.7448 23.4675 57.2014L23.7241 23.8041C23.8221 11.0456 35.6802 1.63973 48.1261 4.44834L80.7052 11.8003C84.1618 12.5803 87.7635 12.428 91.1418 11.359L122.984 1.28268Z" fill="#DDDDDD"/>
</svg>
